<svg width="551" height="453" viewBox="0 0 551 453" fill="none" xmlns="http://www.w3.org/2000/svg">
<g clip-path="url(#clip0)">
<mask id="mask0" mask-type="alpha" maskUnits="userSpaceOnUse" x="57" y="-121" width="459" height="530">
<path d="M314.701 -119.644C307.684 -120.689 300.572 -121.104 293.476 -120.827C286.997 -120.574 280.522 -120.05 274.043 -119.706C213.811 -117.041 163.215 -93.3586 121.588 -49.7204C83.9904 -10.3159 64.0517 36.8113 58.6243 90.4429C53.9118 137.019 66.1912 179.986 88.0236 220.575C107.44 256.673 132.601 288.486 161.415 317.591C191.303 347.78 224.5 373.485 261.539 394.272C270.685 399.402 280.353 403.388 289.995 407.437C292.056 408.301 294.311 409.19 296.259 407.311C297.858 405.77 297.773 403.811 297.328 401.927C296.848 399.91 295.978 398.005 295.012 396.164C290.056 386.723 287.113 376.637 285.041 366.238C282.602 353.982 286.964 341.965 303.758 341.214C347.56 339.251 386.817 323.674 421.751 297.652C472.022 260.202 502.452 210.045 512.219 148.301C522.566 82.8743 507.868 22.7782 467.876 -30.2649C432.959 -76.5706 386.954 -104.834 331.446 -116.627C325.955 -117.793 320.377 -118.796 314.701 -119.644Z" fill="white"/>
</mask>
<g mask="url(#mask0)">
<path d="M577.481 -80.6166L528.903 147.991L464.881 133.884L464.228 133.742C449.065 130.521 433.307 131.46 418.617 136.469L400.983 142.49L388.576 120.659C387.575 118.908 386.39 117.258 385.042 115.748C379.947 110.038 372.934 106.658 365.299 106.227C357.661 105.794 350.309 108.359 344.601 113.453L331.41 125.221L328.31 71.9076C327.769 62.54 322.151 54.2562 313.63 50.2897C307.463 47.4315 300.552 47.1276 294.161 49.4611C287.771 51.7915 282.677 56.4724 279.81 62.6344L255.863 114.11L255.501 78.109C255.392 67.7663 249.689 58.2548 240.621 53.294C233.904 49.6131 226.168 48.7695 218.827 50.9175C211.484 53.0618 205.416 57.9325 201.739 64.6413L186.149 93.0941L183.981 73.4809C182.615 61.1801 173.568 51.1923 161.462 48.6203L144.689 45.0569C136.094 43.2308 127.645 48.7143 125.819 57.3092C123.993 65.904 129.483 74.3491 138.078 76.1751L152.6 79.2603L158.951 136.685C160.115 147.135 169.57 154.712 180.038 153.553C186.219 152.87 191.693 149.2 194.676 143.752L223.8 90.6046L224.606 170.619C224.659 175.717 226.69 180.49 230.336 184.062C232.956 186.632 236.189 188.353 239.697 189.098C241.06 189.388 242.471 189.532 243.899 189.516C251.197 189.44 257.912 185.12 261.015 178.481L298.007 98.9681L300.408 140.21C300.798 146.996 303.815 153.224 308.893 157.747C313.971 162.263 320.507 164.533 327.294 164.148C333.006 163.819 338.504 161.537 342.775 157.728L362.855 139.811L373.314 158.206C380.865 171.47 396.817 177.519 411.264 172.595L428.898 166.578C438.278 163.377 448.192 162.79 458.03 164.952L522.291 179.11L462.481 460.676L-16.3478 358.947L98.6519 -182.346L577.481 -80.6166Z" fill="#EBEBEB"/>
</g>
</g>
<defs>
<clipPath id="clip0">
<rect width="466" height="534" fill="white" transform="translate(111.574 -166.592) rotate(11.9944)"/>
</clipPath>
</defs>
</svg>
