<svg width="111" height="41" viewBox="0 0 111 41" fill="none" xmlns="http://www.w3.org/2000/svg">
  <path
    d="M58.9115 16.4189C58.8833 15.666 58.7508 15.0041 58.5142 14.4324C58.2769 13.8614 57.9632 13.387 57.5731 13.0107C57.1825 12.6341 56.7368 12.3558 56.235 12.1741C55.7331 11.9932 55.217 11.9024 54.6877 11.9024C53.6004 11.9024 52.6593 12.2994 51.8647 13.094C51.0701 13.8886 50.6167 14.9969 50.5057 16.4189H58.9115ZM50.3384 19.8478C50.422 21.4097 50.875 22.65 51.6975 23.5701C52.5196 24.49 53.6004 24.95 54.9385 24.95C55.8305 24.95 56.6178 24.7481 57.3013 24.3438C57.9841 23.94 58.4233 23.3752 58.6187 22.65H64.2225C63.5809 24.769 62.4661 26.4001 60.877 27.5428C59.2878 28.6863 57.3914 29.2575 55.1896 29.2575C48.331 29.2575 44.9019 25.5217 44.9019 18.05C44.9019 16.4608 45.1245 15.0251 45.5709 13.7424C46.0166 12.4601 46.6647 11.3586 47.5155 10.4385C48.3657 9.51837 49.4039 8.81462 50.6312 8.32649C51.8575 7.83909 53.2657 7.59479 54.8549 7.59479C58.0333 7.59479 60.4378 8.61296 62.0689 10.6476C63.7 12.683 64.5153 15.7498 64.5153 19.8478H50.3384Z"
    fill="#00070F" />
  <path
    d="M78.9006 18.6352C78.6216 18.9142 78.2173 19.1371 77.688 19.3043C77.1582 19.4717 76.3915 19.6534 75.3878 19.8478C73.8261 20.1553 72.7533 20.5453 72.1678 21.0192C71.5823 21.4934 71.2896 22.1762 71.2896 23.0679C71.2896 24.6019 72.1678 25.368 73.9242 25.368C74.6207 25.368 75.2688 25.25 75.8687 25.0129C76.4677 24.7761 76.9835 24.4554 77.416 24.0511C77.848 23.6473 78.1961 23.1727 78.4616 22.6289C78.7262 22.0854 78.8587 21.5071 78.8587 20.8935L78.9006 18.6352ZM79.2769 28.7138C79.1097 28.1845 78.9979 27.5709 78.9425 26.8738C78.3009 27.599 77.4507 28.1773 76.3916 28.6093C75.3317 29.041 74.1051 29.2576 72.7113 29.2576C70.3416 29.2576 68.6059 28.7348 67.5048 27.6894C66.4031 26.6438 65.853 25.2847 65.853 23.6119C65.853 22.1343 66.0896 20.9561 66.564 20.0779C67.0377 19.2 67.693 18.5097 68.5295 18.0079C69.3658 17.506 70.3625 17.1369 71.5197 16.8998C72.6762 16.663 73.9379 16.4469 75.304 16.2512C76.6698 16.0568 77.5899 15.7988 78.0643 15.4778C78.538 15.1576 78.7751 14.6348 78.7751 13.9096C78.7751 13.2403 78.4616 12.7177 77.8342 12.3414C77.2071 11.9648 76.3634 11.7767 75.304 11.7767C74.0495 11.7767 73.1503 12.0557 72.6068 12.6132C72.0635 13.1712 71.7216 13.9096 71.5823 14.8297H66.5221C66.5496 13.7706 66.724 12.7948 67.0449 11.9024C67.3651 11.0103 67.8812 10.2439 68.5922 9.60228C69.3031 8.96116 70.2298 8.46653 71.373 8.11767C72.5159 7.76928 73.9097 7.59485 75.555 7.59485C77.1717 7.59485 78.5452 7.77651 79.6742 8.13839C80.8035 8.50123 81.7091 9.02381 82.3926 9.7066C83.0754 10.3901 83.5701 11.2404 83.8773 12.2576C84.1837 13.2757 84.3372 14.4257 84.3372 15.7079V28.7138H79.2769Z"
    fill="#00070F" />
  <path
    d="M97.9298 7.59528C97.3708 7.59528 96.8263 7.62419 96.2987 7.6796C95.7686 7.73502 95.2458 7.86753 94.7302 8.07473C94.2122 8.28434 93.7111 8.5855 93.2244 8.97581C92.7353 9.36611 92.2679 9.90821 91.8222 10.6069V8.13737H86.7217V28.7128H92.1571V18.0083C92.1571 14.6907 93.8171 13.0309 97.1347 13.0309C97.4093 13.0309 97.6816 13.0427 97.9563 13.0692V7.59528H97.9298Z"
    fill="#00070F" />
  <path
    d="M110.35 2.6322V28.7129H104.912V13.1536H100.339V7.4072C101.059 7.36624 101.691 7.27975 102.235 7.14964C103.045 6.95425 103.707 6.65309 104.223 6.24856C104.738 5.84621 105.129 5.34267 105.394 4.74275C105.659 4.145 105.832 3.44149 105.917 2.6322H110.35Z"
    fill="#00070F" />
  <mask id="mask0" mask-type="alpha" maskUnits="userSpaceOnUse" x="0" y="0" width="35" height="40">
    <path
      d="M15.7809 0.280931C15.2448 0.313938 14.7116 0.395132 14.1905 0.527402C13.7146 0.648108 13.2434 0.788812 12.769 0.916264C8.35057 2.06165 4.97634 4.61237 2.58029 8.50027C0.416011 12.0111 -0.319067 15.8161 0.122799 19.8746C0.506601 23.3992 2.09192 26.3889 4.34727 29.0521C6.35301 31.4207 8.71678 33.3814 11.3085 35.084C13.9968 36.85 16.8595 38.2318 19.9294 39.1888C20.6874 39.4249 21.4661 39.568 22.2438 39.7162C22.41 39.7477 22.591 39.7781 22.7057 39.6082C22.7999 39.469 22.7628 39.3251 22.7001 39.1926C22.6329 39.0507 22.5385 38.9232 22.438 38.8021C21.9224 38.1807 21.5458 37.4798 21.2288 36.7421C20.8553 35.8726 20.9893 34.9137 22.2212 34.5937C25.434 33.7589 28.096 31.9871 30.2735 29.5096C33.4071 25.9441 34.8714 21.7495 34.6233 17.0217C34.3602 12.0121 32.3263 7.79145 28.5302 4.49143C25.2159 1.61062 21.3644 0.240936 17.0684 0.240936C16.6434 0.240936 16.2145 0.254428 15.7809 0.280931Z"
      fill="white" />
  </mask>
  <g mask="url(#mask0)">
    <path
      d="M35.8548 -0.963715L35.8541 16.7362L30.8911 16.6988L30.8405 16.6985C29.667 16.6985 28.5148 17.0161 27.5058 17.6184L26.2947 18.3419L25.0324 16.92C24.9307 16.806 24.817 16.7024 24.6934 16.6118C24.2263 16.269 23.6538 16.129 23.0816 16.2172C22.5092 16.3053 22.0051 16.6111 21.6625 17.0782L20.8708 18.1576L19.8025 14.257C19.6151 13.5715 19.0687 13.0463 18.3753 12.8865C17.8737 12.7719 17.3571 12.8581 16.9205 13.1316C16.484 13.4048 16.1804 13.8317 16.065 14.3333L15.1015 18.5236L14.5083 15.8623C14.3375 15.0978 13.7656 14.4829 13.016 14.2582C12.4607 14.0912 11.8745 14.1505 11.3647 14.4251C10.8546 14.6995 10.4819 15.1559 10.3152 15.7107L9.60831 18.0639L9.13922 16.6451C8.84456 15.7553 8.01745 15.1578 7.08047 15.1578H5.78234C5.11713 15.1578 4.57769 15.697 4.57769 16.3624C4.57769 17.0279 5.11713 17.5671 5.78234 17.5671H6.90628L8.28006 21.7212C8.53063 22.477 9.35003 22.8895 10.107 22.6389C10.554 22.491 10.9016 22.133 11.0368 21.6824L12.3573 17.2869L13.6759 23.2017C13.76 23.5785 13.9855 23.9002 14.3117 24.1074C14.5462 24.2565 14.8126 24.3331 15.0842 24.3331C15.1897 24.3331 15.2964 24.3216 15.402 24.298C15.9412 24.1775 16.3705 23.7518 16.4958 23.2111L17.9842 16.7385L18.8109 19.7559C18.9465 20.2525 19.2679 20.6664 19.7151 20.9216C20.1623 21.1762 20.6819 21.2415 21.1785 21.1061C21.5963 20.9919 21.9675 20.7363 22.2239 20.3869L23.429 18.7436L24.493 19.9417C25.2608 20.8054 26.5373 21.0025 27.5297 20.4103L28.7408 19.687C29.3851 19.3023 30.11 19.1028 30.8726 19.1081L35.8541 19.1455L35.8548 40.9454H-1.20459V-0.963715H35.8548Z"
      fill="#D2D9D6" />
  </g>
</svg>